<svg width="36" height="36" viewBox="0 0 36 36" fill="none" xmlns="http://www.w3.org/2000/svg">
<path d="M19.4175 9.70326C21.2256 9.70326 22.6913 8.23755 22.6913 6.42951C22.6913 4.62147 21.2256 3.15576 19.4175 3.15576C17.6095 3.15576 16.1438 4.62147 16.1438 6.42951C16.1438 8.23755 17.6095 9.70326 19.4175 9.70326Z" stroke="black"/>
<path d="M30.1668 21.049C31.9749 21.049 33.4406 19.5833 33.4406 17.7752C33.4406 15.9672 31.9749 14.5015 30.1668 14.5015C28.3588 14.5015 26.8931 15.9672 26.8931 17.7752C26.8931 19.5833 28.3588 21.049 30.1668 21.049Z" stroke="black"/>
<path d="M19.4175 31.7194C21.2256 31.7194 22.6913 30.2537 22.6913 28.4456C22.6913 26.6376 21.2256 25.1719 19.4175 25.1719C17.6095 25.1719 16.1438 26.6376 16.1438 28.4456C16.1438 30.2537 17.6095 31.7194 19.4175 31.7194Z" stroke="black"/>
<path d="M8.52741 26.9157C10.3355 26.9157 11.8012 25.45 11.8012 23.6419C11.8012 21.8339 10.3355 20.3682 8.52741 20.3682C6.71937 20.3682 5.25366 21.8339 5.25366 23.6419C5.25366 25.45 6.71937 26.9157 8.52741 26.9157Z" stroke="black"/>
<path d="M8.52741 14.1129C10.3355 14.1129 11.8012 12.6472 11.8012 10.8392C11.8012 9.03114 10.3355 7.56543 8.52741 7.56543C6.71937 7.56543 5.25366 9.03114 5.25366 10.8392C5.25366 12.6472 6.71937 14.1129 8.52741 14.1129Z" stroke="black"/>
<path d="M19.4118 19.1083C20.8719 19.1083 22.0556 17.9247 22.0556 16.4646C22.0556 15.0044 20.8719 13.8208 19.4118 13.8208C17.9517 13.8208 16.7681 15.0044 16.7681 16.4646C16.7681 17.9247 17.9517 19.1083 19.4118 19.1083Z" stroke="black"/>
<path d="M11.3457 9.16857L16.2563 7.27295" stroke="black"/>
<path d="M21.7124 8.76953L27.8324 15.4802" stroke="black"/>
<path d="M28.1645 20.3623L21.752 26.1504" stroke="black"/>
<path d="M10.3274 13.5732L17.3868 25.8807" stroke="black"/>
<path d="M11.4243 25.166L16.1437 27.3541" stroke="black"/>
<path d="M9.75366 20.6046L17.6455 9.18018" stroke="black"/>
<path d="M11.5425 12.1221L17.0662 15.2439" stroke="black"/>
<path d="M22.0613 16.7627L26.8932 17.1283" stroke="black"/>
<path d="M19.4119 19.1138L19.4175 25.1663" stroke="black"/>
</svg>
