<svg width="32" height="32" viewBox="0 0 32 32" fill="none" xmlns="http://www.w3.org/2000/svg">
<g clip-path="url(#clip0_863_791)">
<path d="M11.9103 18.3782C14.4586 18.3782 16.5244 16.3121 16.5244 13.764C16.5244 11.2157 14.4589 9.1499 11.9103 9.1499C9.36172 9.1499 7.29614 11.2157 7.29614 13.764C7.29614 16.3121 9.36198 18.3782 11.9103 18.3782ZM11.6874 14.0837C10.8037 13.7638 10.2315 13.3598 10.2315 12.5772C10.2315 11.8535 10.7364 11.298 11.5862 11.1466V10.3218H12.2767V11.1045C12.8066 11.1213 13.1686 11.2475 13.4377 11.3822L13.2106 12.1564C13.0089 12.0638 12.6384 11.8703 12.0659 11.8703C11.4768 11.8703 11.2666 12.1732 11.2666 12.4593C11.2666 12.8043 11.5692 12.998 12.2847 13.2842C13.2274 13.6376 13.6485 14.092 13.6485 14.841C13.6485 15.5561 13.1521 16.1875 12.2261 16.3389V17.2056H11.5359V16.3887C11.0057 16.3727 10.4755 16.221 10.1724 16.0193L10.3999 15.228C10.7279 15.4215 11.1992 15.5982 11.7127 15.5982C12.2431 15.5982 12.6048 15.3374 12.6048 14.9336C12.6046 14.5548 12.3099 14.311 11.6874 14.0837Z" fill="white"/>
<path d="M18.7924 10.0849C21.349 10.0849 23.4213 8.01233 23.4213 5.45577C23.4213 2.89921 21.349 0.82666 18.7924 0.82666C16.2359 0.82666 14.1636 2.89921 14.1636 5.45577C14.1636 8.01233 16.2359 10.0849 18.7924 10.0849ZM16.3613 5.64979H16.8342C16.8342 5.60748 16.8342 5.55691 16.8342 5.5146C16.8342 5.4132 16.8427 5.30381 16.8512 5.21092H16.3613V4.68743H16.9268C17.0285 4.1722 17.2563 3.73333 17.5602 3.41264C18.0161 2.90617 18.6325 2.61902 19.3838 2.61902C19.8902 2.61902 20.3126 2.7457 20.5912 2.88089L20.3802 3.666C20.1609 3.54809 19.8149 3.43792 19.4346 3.43792C19.012 3.43792 18.6405 3.58988 18.3626 3.90233C18.1848 4.08809 18.0581 4.36674 17.9908 4.68743H20.2029V5.21092H17.8894C17.8729 5.30381 17.8729 5.40494 17.8729 5.50634C17.8729 5.55691 17.8729 5.59922 17.8729 5.65005H20.2035V6.16477H17.9655C18.0249 6.52804 18.1515 6.79817 18.3293 6.99244C18.6157 7.30463 19.0213 7.44808 19.4607 7.44808C19.8742 7.44808 20.262 7.30463 20.4566 7.19523L20.6341 7.9548C20.3554 8.12379 19.8822 8.29278 19.342 8.29278C18.5736 8.29278 17.8817 7.9886 17.434 7.42305C17.1639 7.11061 16.9779 6.68826 16.902 6.16477H16.361L16.3613 5.64979Z" fill="white"/>
<path d="M28.0147 12.2208C30.2157 12.2208 32.0001 10.4364 32.0001 8.23539C32.0001 6.03436 30.2157 4.25 28.0147 4.25C25.8137 4.25 24.0293 6.03436 24.0293 8.23539C24.0293 10.4364 25.8137 12.2208 28.0147 12.2208ZM27.0915 5.87285L27.7022 7.18867C27.8331 7.45751 27.9128 7.683 28.0077 7.91547H28.0224C28.1099 7.69745 28.2038 7.44306 28.3279 7.17396L28.9605 5.87285H29.9053L28.6331 8.00267H29.5346V8.44618H28.3932V8.94052H29.5346V9.38403H28.3932V10.5979H27.5572V9.38403H26.4233V8.94052H27.5572V8.44618H26.4233V8.00267H27.3317L26.1253 5.87285H27.0915Z" fill="white"/>
<path d="M19.2737 15.6353C19.2737 17.9091 21.1171 19.7525 23.3907 19.7525C25.6647 19.7525 27.5079 17.9091 27.5079 15.6353C27.5079 13.3612 25.6647 11.5181 23.3907 11.5181C21.1166 11.5181 19.2737 13.3612 19.2737 15.6353ZM24.8249 13.3409L24.6598 14.0393C24.5168 13.9565 24.2993 13.8889 24.0065 13.8889C23.4508 13.8889 23.2477 14.2643 23.2477 14.7C23.2477 14.9552 23.2854 15.1582 23.3308 15.3757H24.3819V16.014H23.4131C23.4208 16.2468 23.4208 16.472 23.3605 16.6823C23.2854 16.9377 23.1352 17.1555 22.925 17.3433V17.3582H25.0352V18.1168H21.7459V17.6134C22.1969 17.4037 22.5947 16.9524 22.5947 16.4196C22.5947 16.277 22.5875 16.1565 22.5648 16.0143H21.814V15.376H22.4595C22.4218 15.1657 22.3844 14.918 22.3844 14.6776C22.3844 13.7539 23.038 13.1533 23.9691 13.1533C24.3744 13.1533 24.6595 13.2433 24.8249 13.3409Z" fill="white"/>
<path d="M29.9832 21.0503C29.4527 20.6279 28.4259 20.1346 27.2744 20.1346C26.3004 20.1346 24.8889 20.4878 23.6899 22.1674C22.6115 23.5441 21.2598 24.1014 20.162 24.3125C20.2606 24.0666 20.3245 23.7712 20.3263 23.3535C20.3361 21.0183 18.4749 19.2628 15.9013 19.2512L6.7143 19.2592C5.85205 19.2592 5.00347 19.5136 4.28803 19.9741V18.7788H0V31.1731H4.28777V29.8562C4.4498 29.9365 4.67297 30.0982 4.67297 30.0982C5.41112 30.5054 6.55511 31.0051 7.72206 31.0051H16.1622C23.4325 31.0051 28.4519 26.932 30.2724 24.9144C30.8163 24.3112 31.3798 23.6873 31.315 22.9017C31.2577 22.1997 30.7412 21.654 29.9832 21.0503ZM2.85172 21.517H1.35297V20.0183H2.85172V21.517ZM29.1599 23.9105C27.4738 25.7795 22.8316 29.5066 16.1624 29.5066H7.72232C6.2953 29.5066 4.75863 28.3905 4.7447 28.3797C4.61311 28.2826 4.45651 28.2331 4.29861 28.2331C4.29525 28.2331 4.29164 28.2341 4.28777 28.2341V21.6298C4.45186 21.6328 4.61544 21.5856 4.75089 21.4827L4.91472 21.3591C5.42454 20.9718 6.06336 20.7585 6.71069 20.7585L15.8943 20.7502C17.3598 20.7567 18.8353 21.598 18.8279 23.3478C18.8279 24.3581 18.1542 24.41 18.1178 24.419H11.3857C10.9719 24.419 10.6365 24.7547 10.6365 25.1683C10.6365 25.5819 10.9719 25.917 11.3857 25.917H18.5306L18.9287 25.916C20.0503 25.9157 22.8749 25.651 24.8817 23.0759C24.8881 23.0671 24.8953 23.0581 24.9013 23.049C25.5685 22.1096 26.3667 21.6334 27.2739 21.6334C28.093 21.6334 28.7935 22.0188 29.0489 22.2224C29.7997 22.8202 29.8206 23.0163 29.8212 23.0243C29.8242 23.1752 29.342 23.7095 29.1599 23.9105Z" fill="white"/>
</g>
<defs>
<clipPath id="clip0_863_791">
<rect width="32" height="32" fill="white"/>
</clipPath>
</defs>
</svg>
