<svg width="36" height="36" viewBox="0 0 36 36" fill="none" xmlns="http://www.w3.org/2000/svg">
<path d="M27.6627 17.9999C30.6068 14.9736 31.9242 12.0295 30.8194 10.2126C30.3796 9.48811 29.3659 8.62523 27.0361 8.62523C25.7581 8.62523 24.2652 8.88398 22.6542 9.36098C21.5843 5.49436 19.8012 3.00586 17.7424 3.00586C15.7096 3.00586 13.9444 5.43473 12.8701 9.22148C11.4458 8.83336 10.1239 8.62523 8.97645 8.62523C6.64657 8.62523 5.63295 9.48811 5.19195 10.2126C4.30657 11.6684 4.90057 13.8419 6.86257 16.3326C7.3002 16.8884 7.7997 17.4464 8.3442 18.0044C5.40232 21.0284 4.08832 23.9714 5.19195 25.7882C5.63182 26.5116 6.64657 27.3756 8.97532 27.3756C10.1228 27.3756 11.4458 27.1664 12.8701 26.7794C13.9433 30.5661 15.7084 32.9939 17.7413 32.9939C19.7989 32.9939 21.5821 30.5054 22.6531 26.6399C24.2641 27.1169 25.7581 27.3756 27.0361 27.3756C29.3659 27.3756 30.3796 26.5127 30.8194 25.7882C31.9231 23.9714 30.6057 21.025 27.6627 17.9999ZM27.0361 9.82448C28.0137 9.82448 29.2872 9.99998 29.7946 10.8359C30.5258 12.0396 29.4244 14.4752 26.8077 17.1606C25.8526 16.2674 24.7647 15.3752 23.5598 14.5124C23.4293 13.0915 23.2223 11.755 22.9467 10.531C24.4688 10.0754 25.8694 9.82448 27.0372 9.82448H27.0361ZM20.4863 22.0802C19.6651 22.5797 18.8348 23.0387 18.0068 23.4584C17.1799 23.0387 16.3497 22.5797 15.5284 22.0802C14.6644 21.5549 13.8376 21.0036 13.0523 20.4377C13.0017 19.6514 12.9679 18.8425 12.9679 17.9999C12.9679 17.1561 13.0006 16.3461 13.0523 15.5597C13.8207 15.004 14.6453 14.455 15.5262 13.9195C16.3474 13.42 17.1788 12.961 18.0068 12.5402C18.8348 12.9599 19.6651 13.42 20.4874 13.9195C21.1647 14.3312 21.8003 14.7531 22.4112 15.1772C22.4798 16.0795 22.5181 17.02 22.5181 17.9999C22.5181 18.9797 22.4798 19.9202 22.4112 20.8214C21.8003 21.2466 21.1647 21.6685 20.4863 22.0802ZM22.2582 22.3784C22.1401 23.347 21.9826 24.2515 21.7969 25.0964C21.0027 24.8162 20.1859 24.4855 19.3568 24.1097C19.9407 23.7947 20.5257 23.4606 21.1084 23.1062C21.5011 22.8677 21.8847 22.6247 22.2582 22.3784ZM16.6557 24.1086C15.6556 24.5631 14.6712 24.949 13.7262 25.2617C13.4989 24.2616 13.3144 23.1692 13.1839 21.9914C13.7419 22.3716 14.3123 22.7462 14.9041 23.1062C15.4868 23.4606 16.0718 23.7947 16.6557 24.1086ZM11.7968 19.4837C11.1826 18.9966 10.5998 18.5005 10.0621 18.001C10.5908 17.5082 11.1736 17.011 11.7968 16.5149C11.7788 17.0031 11.7687 17.4981 11.7687 17.9999C11.7687 18.5016 11.7788 18.9966 11.7968 19.4837ZM13.1862 14.0016C13.3156 12.8271 13.5001 11.737 13.7262 10.7391C14.6712 11.0519 15.6544 11.4377 16.6546 11.8922C16.0707 12.2072 15.4846 12.5414 14.9018 12.8957C14.3089 13.2569 13.7363 13.627 13.1851 14.0027L13.1862 14.0016ZM19.3579 11.8911C20.1871 11.5154 21.0038 11.1846 21.7969 10.9045C21.9826 11.7482 22.1401 12.6527 22.2582 13.6214C21.8836 13.375 21.5022 13.1331 21.1107 12.8946C20.5279 12.5402 19.9418 12.2061 19.3579 11.8911ZM23.6689 16.0919C24.5026 16.7275 25.2698 17.3676 25.9482 17.9999C25.2698 18.6321 24.5026 19.2711 23.6689 19.9079C23.6993 19.2846 23.7173 18.6479 23.7173 17.9999C23.7173 17.3519 23.6993 16.7162 23.6689 16.0919ZM17.7424 4.20511C19.1093 4.20511 20.5662 6.28861 21.5078 9.72886C20.3761 10.1226 19.1993 10.6165 18.0068 11.1981C16.6433 10.5332 15.3023 9.98423 14.0243 9.56686C14.9659 6.22448 16.3981 4.20511 17.7436 4.20511H17.7424ZM6.21795 10.8359C6.72532 9.99998 7.99882 9.82448 8.97757 9.82448C10.0171 9.82448 11.2422 10.0236 12.5719 10.3881C12.2536 11.7696 12.0196 13.294 11.8891 14.9252C10.9058 15.6599 10.0058 16.4102 9.20145 17.164C8.68732 16.6375 8.21707 16.1121 7.80532 15.5901C6.19882 13.5516 5.62057 11.8191 6.21795 10.8359ZM8.97645 26.1752C7.9977 26.1752 6.72532 25.9997 6.21795 25.1639C5.4867 23.9601 6.58695 21.5245 9.2037 18.8391C10.0171 19.5962 10.9193 20.3421 11.8891 21.0655C12.0196 22.7001 12.2536 24.2267 12.5719 25.6105C11.2422 25.975 10.0171 26.1741 8.97757 26.1741L8.97645 26.1752ZM17.7424 31.7946C16.3981 31.7946 14.9659 29.7752 14.0232 26.434C15.3012 26.0166 16.6433 25.4676 18.0057 24.8016C19.1982 25.3832 20.3749 25.8771 21.5067 26.272C20.5662 29.7111 19.1093 31.7946 17.7424 31.7946ZM29.7946 25.165C29.2872 25.9997 28.0148 26.1764 27.0361 26.1764C25.8683 26.1764 24.4677 25.9255 22.9456 25.4699C23.2212 24.2447 23.4293 22.9082 23.5598 21.4874C24.7636 20.6234 25.8526 19.7324 26.8077 18.8391C29.4256 21.5256 30.5258 23.9612 29.7946 25.1661V25.165Z" fill="white"/>
</svg>
