<svg width="36" height="36" viewBox="0 0 36 36" fill="none" xmlns="http://www.w3.org/2000/svg">
<path fill-rule="evenodd" clip-rule="evenodd" d="M19.125 9V5.625H16.875V9H13.5C9.15076 9 5.625 12.5258 5.625 16.875V26.8635C5.625 28.8029 7.19715 30.375 9.13649 30.375C10.0678 30.375 10.9609 30.0051 11.6195 29.3465L16.2161 24.75H19.7839L24.3806 29.3465C25.0391 30.0051 25.9322 30.375 26.8635 30.375C28.8029 30.375 30.375 28.8029 30.375 26.8635V16.875C30.375 12.5258 26.8492 9 22.5 9H19.125ZM28.125 16.875C28.125 13.7684 25.6066 11.25 22.5 11.25H13.5C10.3934 11.25 7.875 13.7684 7.875 16.875V26.8635C7.875 27.5603 8.43978 28.125 9.13649 28.125C9.47105 28.125 9.79191 27.9921 10.0285 27.7556L15.2839 22.5H20.7161L25.9715 27.7556C26.2082 27.9921 26.529 28.125 26.8635 28.125C27.5603 28.125 28.125 27.5603 28.125 26.8635V16.875ZM10.125 19.125V16.875H12.375V14.625H14.625V16.875H16.875V19.125H14.625V21.375H12.375V19.125H10.125ZM22.5 16.3125C22.5 17.2444 21.7444 18 20.8125 18C19.8806 18 19.125 17.2444 19.125 16.3125C19.125 15.3806 19.8806 14.625 20.8125 14.625C21.7444 14.625 22.5 15.3806 22.5 16.3125ZM24.1875 21.375C25.1194 21.375 25.875 20.6194 25.875 19.6875C25.875 18.7556 25.1194 18 24.1875 18C23.2556 18 22.5 18.7556 22.5 19.6875C22.5 20.6194 23.2556 21.375 24.1875 21.375Z" fill="white"/>
</svg>
