<svg width="36" height="36" viewBox="0 0 36 36" fill="none" xmlns="http://www.w3.org/2000/svg">
<path d="M15.75 4.5C14.088 4.5 12.75 5.838 12.75 7.5V13.5C12.75 15.162 14.088 16.5 15.75 16.5H20.25C21.912 16.5 23.25 15.162 23.25 13.5V7.5C23.25 5.838 21.912 4.5 20.25 4.5H15.75ZM15.75 6H20.25C21.081 6 21.75 6.669 21.75 7.5V13.5C21.75 14.331 21.081 15 20.25 15H15.75C14.919 15 14.25 14.331 14.25 13.5V7.5C14.25 6.669 14.919 6 15.75 6Z" fill="white"/>
<path d="M15.75 19.5C14.088 19.5 12.75 20.838 12.75 22.5V28.5C12.75 30.162 14.088 31.5 15.75 31.5H20.25C21.912 31.5 23.25 30.162 23.25 28.5V22.5C23.25 20.838 21.912 19.5 20.25 19.5H15.75ZM15.75 21H20.25C21.081 21 21.75 21.669 21.75 22.5V28.5C21.75 29.331 21.081 30 20.25 30H15.75C14.919 30 14.25 29.331 14.25 28.5V22.5C14.25 21.669 14.919 21 15.75 21Z" fill="white"/>
<path d="M18 12C17.169 12 16.5 12.669 16.5 13.5V18H19.5V13.5C19.5 12.669 18.831 12 18 12Z" fill="white"/>
<path d="M16.5 18V22.5C16.5 23.331 17.169 24 18 24C18.831 24 19.5 23.331 19.5 22.5V18H16.5Z" fill="white"/>
</svg>
