<svg width="36" height="36" viewBox="0 0 36 36" fill="none" xmlns="http://www.w3.org/2000/svg">
<path d="M13.875 18C13.875 17.3787 14.3787 16.875 15 16.875H16.875V15C16.875 14.3787 17.3787 13.875 18 13.875C18.6213 13.875 19.125 14.3787 19.125 15V16.875H21C21.6213 16.875 22.125 17.3787 22.125 18C22.125 18.6213 21.6213 19.125 21 19.125H19.125V21C19.125 21.6213 18.6213 22.125 18 22.125C17.3787 22.125 16.875 21.6213 16.875 21V19.125H15C14.3787 19.125 13.875 18.6213 13.875 18Z" fill="black"/>
<path fill-rule="evenodd" clip-rule="evenodd" d="M18 1.875C9.09441 1.875 1.875 9.09441 1.875 18C1.875 26.9056 9.09441 34.125 18 34.125C26.9056 34.125 34.125 26.9056 34.125 18C34.125 9.09441 26.9056 1.875 18 1.875ZM16.875 4.16995C10.1093 4.71282 4.71282 10.1093 4.16995 16.875H7.5C8.12131 16.875 8.625 17.3787 8.625 18C8.625 18.6213 8.12131 19.125 7.5 19.125H4.16995C4.71282 25.8907 10.1093 31.2871 16.875 31.83V28.5C16.875 27.8787 17.3787 27.375 18 27.375C18.6213 27.375 19.125 27.8787 19.125 28.5V31.83C25.8907 31.2871 31.2871 25.8907 31.83 19.125H28.5C27.8787 19.125 27.375 18.6213 27.375 18C27.375 17.3787 27.8787 16.875 28.5 16.875H31.83C31.2871 10.1093 25.8907 4.71282 19.125 4.16995V7.5C19.125 8.12131 18.6213 8.625 18 8.625C17.3787 8.625 16.875 8.12131 16.875 7.5V4.16995Z" fill="black"/>
</svg>
