<svg width="36" height="36" viewBox="0 0 36 36" fill="none" xmlns="http://www.w3.org/2000/svg">
<path d="M30.4578 31.6043H18.4578V12.1044M18.4578 12.1044C20.1147 12.1044 21.4578 10.7612 21.4578 9.10436C21.4578 8.74391 21.3942 8.3983 21.2778 8.07814M18.4578 12.1044C16.801 12.1044 15.4578 10.7612 15.4578 9.10436C15.4578 7.4475 16.801 6.10436 18.4578 6.10436C19.7542 6.10436 20.8585 6.92666 21.2778 8.07814M21.2778 8.07814L29.7348 5M15.6394 10.1303L7.18219 13.2085M9.45782 31.6043C11.7266 31.6043 13.6033 30.3419 13.913 28.2313C13.9326 28.0975 13.9424 28.0306 13.9348 27.8822C13.9294 27.7798 13.8947 27.5927 13.863 27.4951C13.8169 27.3539 13.7612 27.2548 13.6496 27.0563L9.45782 19.6043L5.26603 27.0563C5.1626 27.2402 5.1109 27.3322 5.06306 27.4919C5.03363 27.5902 4.99957 27.826 5 27.9286C5.00069 28.0952 5.01077 28.1392 5.03096 28.2272C5.4134 29.8943 7.24993 31.6043 9.45782 31.6043ZM27.4578 25.6043C29.7267 25.6043 31.6033 24.3419 31.9129 22.2313C31.9326 22.0975 31.9425 22.0306 31.9347 21.8822C31.9294 21.7798 31.8948 21.5927 31.863 21.4951C31.8169 21.3539 31.7611 21.2548 31.6495 21.0563L27.4578 13.6044L23.266 21.0563C23.1627 21.2402 23.1109 21.3322 23.0631 21.4919C23.0337 21.5902 22.9996 21.826 22.9999 21.9286C23.0007 22.0952 23.0107 22.1392 23.031 22.2272C23.4135 23.8943 25.2499 25.6043 27.4578 25.6043Z" stroke="black" stroke-width="1.5" stroke-linecap="round" stroke-linejoin="round"/>
</svg>
