<svg width="36" height="36" viewBox="0 0 36 36" fill="none" xmlns="http://www.w3.org/2000/svg">
<path d="M3 30H6M6 30H22.5M6 30V21.5523C6 20.7642 6 20.37 6.0945 20.0025C6.17824 19.6767 6.31609 19.3677 6.50244 19.0878C6.71257 18.772 7.00671 18.5076 7.59228 17.9815L11.0446 14.88C12.1768 13.8629 12.7432 13.354 13.3837 13.1609C13.9484 12.9907 14.551 12.9907 15.1156 13.1609C15.7567 13.3541 16.324 13.8633 17.458 14.8821L20.908 17.9815C21.4942 18.5082 21.7867 18.7719 21.997 19.0878C22.1833 19.3677 22.321 19.6767 22.4047 20.0025C22.4992 20.37 22.5 20.7642 22.5 21.5523V30M22.5 30H30M30 30H33M30 30V10.7954C30 9.11848 30 8.2788 29.6733 7.6377C29.3857 7.07321 28.9255 6.61459 28.3611 6.32698C27.7194 6 26.8804 6 25.2003 6H15.3003C13.6201 6 12.7794 6 12.1377 6.32698C11.5732 6.61459 11.1146 7.07321 10.827 7.6377C10.5 8.27943 10.5 9.12013 10.5 10.8003V15.0003" stroke="white" stroke-width="2" stroke-linecap="round" stroke-linejoin="round"/>
</svg>
